<svg width="192" height="192" viewBox="0 0 512 512" fill="none" xmlns="http://www.w3.org/2000/svg">
  <rect width="512" height="512" rx="120" fill="url(#bg)" />
  <circle cx="256" cy="212" r="124" fill="#F5D66F" />
  <path d="M256 64C168.8 64 98 134.8 98 222C98 308.4 240.8 424.8 250.6 432.6C253.8 435.2 258.2 435.2 261.4 432.6C271.2 424.8 414 308.4 414 222C414 134.8 343.2 64 256 64ZM256 299C213.5 299 179 264.5 179 222C179 179.5 213.5 145 256 145C298.5 145 333 179.5 333 222C333 264.5 298.5 299 256 299Z" fill="#63A9E6"/>
  <rect x="135" y="356" width="242" height="40" rx="20" fill="#4D84B3" opacity="0.85"/>
  <rect x="154" y="193" width="156" height="70" rx="16" fill="#A64A3D"/>
  <rect x="154" y="225" width="164" height="28" fill="#EB625B"/>
  <rect x="192" y="161" width="50" height="32" rx="16" fill="#3E78A9"/>
  <rect x="264" y="168" width="92" height="24" rx="12" fill="#3E78A9"/>
  <defs>
    <linearGradient id="bg" x1="76" y1="54" x2="424" y2="462" gradientUnits="userSpaceOnUse">
      <stop stop-color="#1B3859"/>
      <stop offset="1" stop-color="#244B74"/>
    </linearGradient>
  </defs>
</svg>
