<svg xmlns="http://www.w3.org/2000/svg" viewBox="0 0 192 192">
  <defs>
    <linearGradient id="bg" x1="0%" y1="0%" x2="100%" y2="100%">
      <stop offset="0%" stop-color="#14b8a6"/>
      <stop offset="100%" stop-color="#17314f"/>
    </linearGradient>
  </defs>
  <rect width="192" height="192" rx="52" fill="url(#bg)"/>
  <path d="M49 118c0-22 16.1-38 38.5-38 6.2 0 12.1 1.2 17.4 3.7L119.5 62H142l-20.2 28.7c6.9 6.5 11.2 15.6 11.2 26.3 0 24.3-17.5 41.3-42.8 41.3S49 142.3 49 118Zm24.7 0c0 11.4 7.6 18.8 18.1 18.8s18.2-7.4 18.2-18.8-7.4-18.9-18.2-18.9S73.7 106.4 73.7 118Z" fill="#f8fafc"/>
  <circle cx="138" cy="54" r="15" fill="#f59e0b"/>
</svg>
