<svg xmlns="http://www.w3.org/2000/svg" viewBox="0 0 64 64">
  <defs>
    <linearGradient id="bg" x1="0%" y1="0%" x2="100%" y2="100%">
      <stop offset="0%" stop-color="#14b8a6"/>
      <stop offset="100%" stop-color="#17314f"/>
    </linearGradient>
  </defs>
  <rect width="64" height="64" rx="18" fill="url(#bg)"/>
  <path d="M18 39c0-7 5.4-12 12.8-12 2.1 0 4 .4 5.8 1.2l4.9-7.1h7.5l-6.7 9.5c2.3 2.2 3.7 5.1 3.7 8.8 0 7.7-5.8 13.1-14.2 13.1S18 46.9 18 39Zm8.2 0c0 3.6 2.5 6 6 6s6-2.4 6-6-2.4-6-6-6-6 2.4-6 6Z" fill="#f8fafc"/>
  <circle cx="46" cy="18" r="5" fill="#f59e0b"/>
</svg>
